<?xml version="1.0" encoding="UTF-8" standalone="no"?>
<!-- Created with Inkscape (http://www.inkscape.org/) -->

<svg
   width="148.2757mm"
   height="39.426731mm"
   viewBox="0 0 148.2757 39.426731"
   version="1.1"
   id="svg1"
   inkscape:version="1.3.2 (091e20e, 2023-11-25, custom)"
   sodipodi:docname="logo-bru-test-2.svg"
   xmlns:inkscape="http://www.inkscape.org/namespaces/inkscape"
   xmlns:sodipodi="http://sodipodi.sourceforge.net/DTD/sodipodi-0.dtd"
   xmlns="http://www.w3.org/2000/svg"
   xmlns:svg="http://www.w3.org/2000/svg">
  <sodipodi:namedview
     id="namedview1"
     pagecolor="#ffffff"
     bordercolor="#cccccc"
     borderopacity="1"
     inkscape:showpageshadow="0"
     inkscape:pageopacity="1"
     inkscape:pagecheckerboard="0"
     inkscape:deskcolor="#d1d1d1"
     inkscape:document-units="mm"
     inkscape:zoom="0.97531385"
     inkscape:cx="279.39724"
     inkscape:cy="220.95452"
     inkscape:window-width="1920"
     inkscape:window-height="991"
     inkscape:window-x="-9"
     inkscape:window-y="-9"
     inkscape:window-maximized="1"
     inkscape:current-layer="layer1"
     showgrid="false"
     showguides="true">
    <sodipodi:guide
       position="22.041211,88.645123"
       orientation="0,-1"
       id="guide1"
       inkscape:locked="false" />
  </sodipodi:namedview>
  <defs
     id="defs1" />
  <g
     inkscape:label="Camada 1"
     inkscape:groupmode="layer"
     id="layer1"
     transform="translate(-32.214829,-30.286635)">
    <path
       id="rect23"
       style="fill:#7a8a91;fill-opacity:1;stroke:#1a3600;stroke-width:0;stroke-linecap:square"
       d="m 49.96402,50.750223 c 1.042833,1.145119 1.998045,2.027374 2.977214,2.981509 0.212406,0.207 0.212622,0.550784 0.0068,0.764375 l -0.179292,0.186066 c -0.205776,0.213594 -0.511182,0.182932 -0.749754,0.0065 -0.975313,-0.720402 -1.984796,-1.987438 -2.977214,-2.981502 -0.209558,-0.209919 -0.212621,-0.550791 -0.0068,-0.764375 l 0.179293,-0.186066 c 0.205776,-0.213595 0.550053,-0.22599 0.749757,-0.0065 z"
       sodipodi:nodetypes="sssssssss" />
    <g
       id="g1"
       transform="translate(0,8.2336536)">
      <path
         style="fill:#7a8a91;fill-opacity:1;stroke-width:0.158444;stroke-linecap:square"
         id="path15"
         sodipodi:type="arc"
         sodipodi:cx="45.769417"
         sodipodi:cy="23.373571"
         sodipodi:rx="2.7294645"
         sodipodi:ry="0.9521389"
         sodipodi:start="0"
         sodipodi:end="6.2763293"
         sodipodi:arc-type="slice"
         d="m 48.498881,23.373571 a 2.7294645,0.9521389 0 0 1 -2.724786,0.952138 2.7294645,0.9521389 0 0 1 -2.734127,-0.948874 2.7294645,0.9521389 0 0 1 2.715414,-0.95539 2.7294645,0.9521389 0 0 1 2.743435,0.945599 l -2.7294,0.0065 z" />
      <path
         id="rect15"
         style="opacity:0.515358;fill:#7a8a91;fill-opacity:1;stroke-width:0.137091;stroke-linecap:square"
         d="m 43.058078,24.470801 c 2.284217,0.470618 3.938522,0.383872 5.404523,0.03628 v 1.523428 c -1.841715,0.87164 -3.647143,0.618361 -5.440792,0 z"
         sodipodi:nodetypes="ccccc" />
      <path
         id="path16"
         style="opacity:0.515358;fill:#7a8a91;fill-opacity:1;stroke-width:0.137091;stroke-linecap:square"
         d="m 42.985536,26.810342 c 2.284214,0.470617 3.974795,0.347595 5.440792,0 v 1.523424 c -1.841715,0.87164 -3.647143,0.618364 -5.440792,0 z"
         sodipodi:nodetypes="ccccc" />
      <rect
         style="fill:#3e8e7e;fill-opacity:1;stroke-width:0.137091;stroke-linecap:square"
         id="rect16"
         width="9.6664753"
         height="1.3420631"
         x="32.557346"
         y="24.615866"
         ry="0.67103153" />
      <rect
         style="fill:#3e8e7e;fill-opacity:1;stroke-width:0.126941;stroke-linecap:square"
         id="rect17"
         width="8.2881422"
         height="1.3420631"
         x="33.881283"
         y="28.478842"
         ry="0.67103153" />
      <path
         style="fill:#1c2a3a;fill-opacity:1;stroke:#1a3600;stroke-width:0;stroke-linecap:square;stroke-dasharray:none;stroke-opacity:1"
         d="m 41.000289,32.452831 c -2.881132,-2.547618 -6.610153,-5.342257 -7.391056,-9.886306 -0.572338,-0.870816 -0.935722,-0.487909 -1.269518,0.07253 -0.762299,5.058917 2.04097,8.624917 6.339169,11.563239 z"
         id="path21"
         sodipodi:nodetypes="ccccc" />
      <path
         id="path22"
         style="fill:#7a8a91;fill-opacity:1;stroke:#1a3600;stroke-width:0;stroke-linecap:square;stroke-dasharray:none;stroke-opacity:1"
         d="m 46.349626,34.862472 a 4.5793352,4.5974712 0 0 0 -4.579049,4.597652 4.5793352,4.5974712 0 0 0 4.579049,4.597652 4.5793352,4.5974712 0 0 0 4.579565,-4.597652 4.5793352,4.5974712 0 0 0 -4.579565,-4.597652 z m -0.05426,1.197342 a 3.3279521,3.3460879 0 0 1 3.327963,3.346049 3.3279521,3.3460879 0 0 1 -3.327963,3.346049 3.3279521,3.3460879 0 0 1 -3.327962,-3.346049 3.3279521,3.3460879 0 0 1 3.327962,-3.346049 z" />
      <rect
         style="fill:#3e8e7e;fill-opacity:1;stroke:#1a3600;stroke-width:0;stroke-linecap:square"
         id="rect1"
         width="7.17278"
         height="1.2967227"
         x="35.767429"
         y="56.625889"
         ry="0.6271733" />
      <path
         style="fill:#1c2a3a;fill-opacity:1;stroke:#1a3600;stroke-width:0;stroke-linecap:square"
         d="m 48.757846,44.458658 1.164886,1.410361 c -1.482334,6.183369 -12.137774,8.404272 -15.812085,15.247823 -0.56262,0.380672 -1.188209,0.753947 -1.328393,-0.509482 -0.100744,-6.814596 12.586294,-11.020633 14.593797,-15.565216 0.491004,-0.174104 0.958772,-0.324391 1.381795,-0.583486 z"
         id="path1"
         sodipodi:nodetypes="cccccc" />
      <path
         id="path2"
         style="opacity:1;fill:#7a8a91;fill-opacity:1;stroke:#1a3600;stroke-width:0;stroke-linecap:square"
         d="m 49.89928,51.329167 a 1.2792014,1.2663773 0 0 0 -1.279509,1.266589 1.2792014,1.2663773 0 0 0 1.279509,1.266073 1.2792014,1.2663773 0 0 0 1.278991,-1.266073 1.2792014,1.2663773 0 0 0 -1.278991,-1.266589 z m 0,0.609265 a 0.66388929,0.65723377 0 0 1 0.664042,0.657324 0.66388929,0.65723377 0 0 1 -0.664042,0.656807 0.66388929,0.65723377 0 0 1 -0.664042,-0.656807 0.66388929,0.65723377 0 0 1 0.664042,-0.657324 z" />
      <path
         id="ellipse3"
         style="opacity:1;fill:#7a8a91;fill-opacity:1;stroke:#1a3600;stroke-width:0;stroke-linecap:square"
         d="m 46.122249,53.828756 a 1.7921642,1.7741977 0 0 0 -1.792138,1.774052 1.7921642,1.7741977 0 0 0 1.792138,1.774052 1.7921642,1.7741977 0 0 0 1.792656,-1.774052 1.7921642,1.7741977 0 0 0 -1.792656,-1.774052 z m 0,0.853178 a 0.93011063,0.92078608 0 0 1 0.930176,0.920874 0.93011063,0.92078608 0 0 1 -0.930176,0.920874 0.93011063,0.92078608 0 0 1 -0.929659,-0.920874 0.93011063,0.92078608 0 0 1 0.929659,-0.920874 z" />
      <path
         id="ellipse5"
         style="opacity:1;fill:#7a8a91;fill-opacity:1;stroke:#1a3600;stroke-width:0;stroke-linecap:square"
         d="m 50.251713,57.086955 a 1.2792014,1.2663773 0 0 0 -1.278992,1.266589 1.2792014,1.2663773 0 0 0 1.278992,1.266589 1.2792014,1.2663773 0 0 0 1.279509,-1.266589 1.2792014,1.2663773 0 0 0 -1.279509,-1.266589 z m 0,0.609265 a 0.66388929,0.65723377 0 0 1 0.664042,0.657324 0.66388929,0.65723377 0 0 1 -0.664042,0.657324 0.66388929,0.65723377 0 0 1 -0.663525,-0.657324 0.66388929,0.65723377 0 0 1 0.663525,-0.657324 z" />
      <path
         id="ellipse7"
         style="opacity:1;fill:#7a8a91;fill-opacity:1;stroke:#1a3600;stroke-width:0;stroke-linecap:square"
         d="m 45.737777,58.721997 a 1.2792014,1.2663773 0 0 0 -1.278992,1.266589 1.2792014,1.2663773 0 0 0 1.278992,1.26659 1.2792014,1.2663773 0 0 0 1.278991,-1.26659 1.2792014,1.2663773 0 0 0 -1.278991,-1.266589 z m 0,0.609265 a 0.66388929,0.65723377 0 0 1 0.664042,0.657324 0.66388929,0.65723377 0 0 1 -0.664042,0.657325 0.66388929,0.65723377 0 0 1 -0.664042,-0.657325 0.66388929,0.65723377 0 0 1 0.664042,-0.657324 z" />
      <path
         style="opacity:1;fill:#7a8a91;fill-opacity:0.772549;stroke:#1a3600;stroke-width:0;stroke-linecap:square"
         d="m 47.164395,54.250648 1.638001,-1.268029 0.722196,0.748034 c -0.697904,0.116155 -1.810951,1.101424 -1.766871,1.241633 z"
         id="path17"
         sodipodi:nodetypes="ccccc" />
      <path
         style="opacity:1;fill:#7a8a91;fill-opacity:0.772549;stroke:#1a3600;stroke-width:0;stroke-linecap:square"
         d="m 49.655044,57.260651 c -0.380089,0.146612 -1.965271,-0.937736 -1.777327,-1.305787 l -0.575819,0.970269 c 0.08803,0.04868 1.179544,0.698402 1.704782,1.3466 z"
         id="path18"
         sodipodi:nodetypes="ccccc" />
      <path
         style="opacity:1;fill:#7a8a91;fill-opacity:0.772549;stroke:#1a3600;stroke-width:0;stroke-linecap:square"
         d="m 45.486032,57.207375 1.177706,0.06122 -0.139406,0.115625 c -0.07494,0.04565 -0.155656,1.034471 -0.20401,1.486017 l -1.002013,-0.06461 c 0.119048,-0.367099 0.251248,-1.374708 0.167763,-1.598229 z"
         id="path19"
         sodipodi:nodetypes="cccccc" />
      <path
         style="opacity:1;fill:#7a8a91;fill-opacity:0.772549;stroke:#1a3600;stroke-width:0;stroke-linecap:square"
         d="m 43.740427,52.592323 1.154167,-0.743798 c -0.297548,0.266057 0.596454,1.343001 0.936155,2.0262 l -1.00669,0.577091 c -0.0472,-0.558621 -0.539806,-1.13533 -1.083632,-1.859493 z"
         id="path20"
         sodipodi:nodetypes="ccccc" />
      <rect
         style="fill:#3e8e7e;fill-opacity:1;stroke:#1a3600;stroke-width:0;stroke-linecap:square"
         id="rect24"
         width="8.3969564"
         height="1.3239264"
         x="35.912506"
         y="46.687386"
         ry="0.65289515" />
      <rect
         style="fill:#3e8e7e;fill-opacity:1;stroke:#1a3600;stroke-width:0;stroke-linecap:square"
         id="rect25"
         width="7.3632054"
         height="1.2513809"
         x="34.860622"
         y="43.005753"
         ry="0.62569046" />
      <rect
         style="fill:#3e8e7e;fill-opacity:1;stroke:#1a3600;stroke-width:0;stroke-linecap:square"
         id="rect26"
         width="4.6609454"
         height="1.3964701"
         x="36.510998"
         y="38.852623"
         ry="0.57128316" />
      <path
         style="fill:#1c2a3a;fill-opacity:1;stroke:#1a3600;stroke-width:0;stroke-linecap:square"
         d="m 50.787253,22.49422 c 1.917068,8.082374 -5.999381,11.453177 -12.259813,16.209635 -4.738911,4.281056 -3.814362,8.115505 2.321157,11.349295 l -2.73153,1.679959 c -4.371491,-2.678599 -7.903654,-7.713487 -2.410926,-14.15778 6.51587,-6.55277 14.724415,-7.20855 13.85,-15.132403 0.437372,-0.401416 0.86153,-0.598021 1.231112,0.05131 z"
         id="path24"
         sodipodi:nodetypes="ccccccc" />
    </g>
    <path
       d="m 72.553181,50.15875 q 0,2.0193 -0.6731,3.7084 -0.6731,1.6891 -1.8923,2.9083 -1.2192,1.2192 -2.9337,1.8923 -1.7145,0.6731 -3.7973,0.6731 h -7.0104 v -18.3642 h 7.0104 q 2.0828,0 3.7973,0.6858 1.7145,0.6731 2.9337,1.8923 1.2192,1.2065 1.8923,2.8956 0.6731,1.6891 0.6731,3.7084 z m -3.4925,0 q 0,-1.5113 -0.4064,-2.7051 -0.4064,-1.2065 -1.1557,-2.032 -0.7493,-0.8382 -1.8288,-1.2827 -1.0668,-0.4445 -2.413,-0.4445 h -3.5687 v 12.9286 h 3.5687 q 1.3462,0 2.413,-0.4445 1.0795,-0.4445 1.8288,-1.27 0.7493,-0.8382 1.1557,-2.032 0.4064,-1.2065 0.4064,-2.7178 z m 11.379187,-4.0513 q 1.2319,0 2.2606,0.3937 1.0414,0.3937 1.7907,1.1557 0.7493,0.7493 1.1684,1.8542 0.4191,1.0922 0.4191,2.5019 0,0.3556 -0.0381,0.5969 -0.0254,0.2286 -0.1143,0.3683 -0.0762,0.127 -0.2159,0.1905 -0.1397,0.0508 -0.3556,0.0508 h -8.0518 q 0.1397,2.0066 1.0795,2.9464 0.9398,0.9398 2.4892,0.9398 0.762,0 1.3081,-0.1778 0.5588,-0.1778 0.9652,-0.3937 0.4191,-0.2159 0.7239,-0.3937 0.3175,-0.1778 0.6096,-0.1778 0.1905,0 0.3302,0.0762 0.1397,0.0762 0.2413,0.2159 l 0.9144,1.143 q -0.5207,0.6096 -1.1684,1.0287 -0.6477,0.4064 -1.3589,0.6604 -0.6985,0.2413 -1.4351,0.3429 -0.7239,0.1016 -1.4097,0.1016 -1.3589,0 -2.5273,-0.4445 -1.1684,-0.4572 -2.032,-1.3335 -0.8636,-0.889 -1.3589,-2.1844 -0.4953,-1.3081 -0.4953,-3.0226 0,-1.3335 0.4318,-2.5019 0.4318,-1.1811 1.2319,-2.0447 0.8128,-0.8763 1.9685,-1.3843 1.1684,-0.508 2.6289,-0.508 z m 0.0635,2.2479 q -1.3716,0 -2.1463,0.7747 -0.7747,0.7747 -0.9906,2.1971 h 5.8928 q 0,-0.6096 -0.1651,-1.143 -0.1651,-0.5461 -0.508,-0.9525 -0.3429,-0.4064 -0.8636,-0.635 -0.5207,-0.2413 -1.2192,-0.2413 z m 8.128003,10.9855 v -13.0302 h 1.9177 q 0.6096,0 0.8001,0.5715 l 0.2032,0.9652 q 0.3429,-0.381 0.7112,-0.6985 0.381,-0.3175 0.8001,-0.5461 0.4318,-0.2286 0.9144,-0.3556 0.4953,-0.1397 1.0795,-0.1397 1.2319,0 2.0193,0.6731 0.8001,0.6604 1.1938,1.7653 0.3048,-0.6477 0.762,-1.1049 0.4572,-0.4699 1.003299,-0.762 0.5461,-0.2921 1.1557,-0.4318 0.6223,-0.1397 1.2446,-0.1397 1.0795,0 1.9177,0.3302 0.8382,0.3302 1.4097,0.9652 0.5715,0.635 0.8636,1.5494 0.3048,0.9144 0.3048,2.0955 v 8.2931 h -3.1369 v -8.2931 q 0,-1.2446 -0.5461,-1.8669 -0.5461,-0.635 -1.6002,-0.635 -0.4826,0 -0.9017,0.1651 -0.4064,0.1651 -0.7239,0.4826 -0.304799,0.3048 -0.482599,0.7747 -0.1778,0.4699 -0.1778,1.0795 v 8.2931 h -3.1496 v -8.2931 q 0,-1.3081 -0.5334,-1.905 -0.5207,-0.5969 -1.5494,-0.5969 -0.6731,0 -1.27,0.3429 -0.5842,0.3302 -1.0922,0.9144 v 9.5377 z m 26.949419,-13.2334 q 1.4605,0 2.6416,0.4699 1.1938,0.4699 2.032,1.3335 0.8382,0.8636 1.2954,2.1082 0.4572,1.2446 0.4572,2.7813 0,1.5494 -0.4572,2.794 -0.4572,1.2446 -1.2954,2.1209 -0.8382,0.8763 -2.032,1.3462 -1.1811,0.4699 -2.6416,0.4699 -1.4605,0 -2.6543,-0.4699 -1.1938,-0.4699 -2.0447,-1.3462 -0.8382,-0.8763 -1.3081,-2.1209 -0.4572,-1.2446 -0.4572,-2.794 0,-1.5367 0.4572,-2.7813 0.4699,-1.2446 1.3081,-2.1082 0.8509,-0.8636 2.0447,-1.3335 1.1938,-0.4699 2.6543,-0.4699 z m 0,11.0109 q 1.6256,0 2.4003,-1.0922 0.7874,-1.0922 0.7874,-3.2004 0,-2.1082 -0.7874,-3.2131 -0.7747,-1.1049 -2.4003,-1.1049 -1.651,0 -2.4384,1.1176 -0.7874,1.1049 -0.7874,3.2004 0,2.0955 0.7874,3.2004 0.7874,1.0922 2.4384,1.0922 z m 18.27532,-5.3975 q 0.2159,0.4064 0.3937,0.8509 0.1905,0.4318 0.3683,0.8763 0.1778,-0.4572 0.3683,-0.9017 0.1905,-0.4445 0.4064,-0.8509 l 5.4356,-10.1727 q 0.1016,-0.1905 0.2032,-0.3048 0.1143,-0.1143 0.2413,-0.1651 0.1397,-0.0508 0.3048,-0.0635 0.1651,-0.0127 0.3937,-0.0127 h 2.5781 v 18.3642 h -3.0099 v -11.8618 q 0,-0.3302 0.0127,-0.7239 0.0254,-0.3937 0.0635,-0.8001 l -5.5499,10.414 q -0.1905,0.3556 -0.4953,0.5588 -0.3048,0.1905 -0.7112,0.1905 h -0.4699 q -0.4064,0 -0.7112,-0.1905 -0.3048,-0.2032 -0.4953,-0.5588 l -5.6261,-10.4521 q 0.0508,0.4191 0.0635,0.8255 0.0254,0.3937 0.0254,0.7366 v 11.8618 h -3.0099 v -18.3642 h 2.5781 q 0.2286,0 0.3937,0.0127 0.1651,0.0127 0.2921,0.0635 0.1397,0.0508 0.254,0.1651 0.1143,0.1143 0.2159,0.3048 z m 17.56411,-5.4102 v 13.0302 h -3.1369 v -13.0302 z m 0.4699,-3.7973 q 0,0.4064 -0.1651,0.762 -0.1651,0.3556 -0.4445,0.6223 -0.2667,0.2667 -0.635,0.4318 -0.3683,0.1524 -0.7874,0.1524 -0.4064,0 -0.7747,-0.1524 -0.3556,-0.1651 -0.6223,-0.4318 -0.2667,-0.2667 -0.4318,-0.6223 -0.1524,-0.3556 -0.1524,-0.762 0,-0.4191 0.1524,-0.7874 0.1651,-0.3683 0.4318,-0.635 0.2667,-0.2667 0.6223,-0.4191 0.3683,-0.1651 0.7747,-0.1651 0.4191,0 0.7874,0.1651 0.3683,0.1524 0.635,0.4191 0.2794,0.2667 0.4445,0.635 0.1651,0.3683 0.1651,0.7874 z m 3.07339,16.8275 v -13.0302 h 1.9177 q 0.6096,0 0.8001,0.5715 l 0.2159,1.0287 q 0.3937,-0.4064 0.8255,-0.7366 0.4445,-0.3302 0.9271,-0.5715 0.4953,-0.2413 1.0541,-0.3683 0.5588,-0.127 1.2192,-0.127 1.0668,0 1.8923,0.3683 0.8255,0.3556 1.3716,1.016 0.5588,0.6477 0.8382,1.5621 0.2921,0.9017 0.2921,1.9939 v 8.2931 h -3.1369 v -8.2931 q 0,-1.1938 -0.5588,-1.8415 -0.5461,-0.6604 -1.651,-0.6604 -0.8128,0 -1.524,0.3683 -0.7112,0.3683 -1.3462,1.0033 v 9.4234 z m 23.60932,0 q -0.6096,0 -0.8001,-0.5715 l -0.254,-1.2573 q -0.4064,0.4572 -0.8509,0.8255 -0.4445,0.3683 -0.9652,0.635 -0.508,0.2667 -1.1049,0.4064 -0.5842,0.1524 -1.27,0.1524 -1.0668,0 -1.9558,-0.4445 -0.889,-0.4445 -1.5367,-1.2827 -0.635,-0.8509 -0.9906,-2.0955 -0.3429,-1.2446 -0.3429,-2.8448 0,-1.4478 0.3937,-2.6924 0.3937,-1.2446 1.1303,-2.159 0.7366,-0.9144 1.7653,-1.4224 1.0287,-0.5207 2.3114,-0.5207 1.0922,0 1.8669,0.3556 0.7747,0.3429 1.3843,0.9271 v -6.8834 h 3.1369 v 18.8722 z m -4.1783,-2.2987 q 0.9779,0 1.6637,-0.4064 0.6858,-0.4064 1.2954,-1.1557 v -5.842 q -0.5334,-0.6477 -1.1684,-0.9144 -0.6223,-0.2667 -1.3462,-0.2667 -0.7112,0 -1.2954,0.2667 -0.5715,0.2667 -0.9779,0.8128 -0.3937,0.5334 -0.6096,1.3716 -0.2159,0.8255 -0.2159,1.9558 0,1.143 0.1778,1.9431 0.1905,0.7874 0.5334,1.2954 0.3429,0.4953 0.8382,0.7239 0.4953,0.2159 1.1049,0.2159 z"
       id="text3"
       style="font-weight:bold;font-size:25.4px;font-family:Lato;-inkscape-font-specification:'Lato Bold';fill:#3e8e7e;stroke:#1a3600;stroke-width:0;stroke-linecap:square;fill-opacity:1"
       aria-label="DemoMind" />
    <text
       xml:space="preserve"
       style="font-style:normal;font-variant:normal;font-weight:normal;font-stretch:normal;font-size:14.1111px;font-family:Lato;-inkscape-font-specification:Lato;fill:#a4d7b2;stroke:#1a3600;stroke-width:0;stroke-linecap:square"
       x="94.795364"
       y="31.992279"
       id="text1"><tspan
         sodipodi:role="line"
         id="tspan1"
         style="font-style:normal;font-variant:normal;font-weight:normal;font-stretch:normal;font-family:Lato;-inkscape-font-specification:Lato;stroke-width:0"
         x="94.795364"
         y="31.992279" /></text>
    <text
       xml:space="preserve"
       style="font-style:normal;font-variant:normal;font-weight:normal;font-stretch:normal;font-size:14.1111px;font-family:Lato;-inkscape-font-specification:Lato;fill:#a4d7b2;stroke:#1a3600;stroke-width:0;stroke-linecap:square"
       x="34.783783"
       y="31.725868"
       id="text2"><tspan
         sodipodi:role="line"
         id="tspan2"
         style="font-style:normal;font-variant:normal;font-weight:normal;font-stretch:normal;font-family:Lato;-inkscape-font-specification:Lato;stroke-width:0"
         x="34.783783"
         y="31.725868" /></text>
    <path
       style="opacity:1;fill:#3e8e7e;fill-opacity:1;stroke:#1a3600;stroke-width:0;stroke-linecap:square"
       d="M 90.89742,75.128576 V 40.509618 h 14.28736 c 8.72663,0 15.05795,0.07499 16.26728,0.192666 6.06636,0.590314 11.92045,2.624099 16.58431,5.761597 7.47478,5.028474 12.25266,12.725186 13.85614,22.320907 0.45464,2.720716 0.54836,7.949315 0.19669,10.973125 -1.95483,16.808305 -13.92009,28.292267 -31.04467,29.795907 -1.32904,0.11669 -7.76065,0.19371 -16.17665,0.19371 H 90.89742 Z m 31.90019,23.967657 c 6.4246,-1.561987 10.68499,-4.77674 13.46257,-10.158422 1.27435,-2.469111 1.82841,-4.036003 2.43786,-6.89438 0.45612,-2.139194 0.48912,-2.596807 0.4921,-6.82423 0.003,-3.577568 -0.0639,-4.883606 -0.31537,-6.20527 -1.16108,-6.101088 -3.70367,-10.767395 -7.55727,-13.869522 -1.76013,-1.416893 -4.33469,-2.792519 -6.49502,-3.470384 -2.92079,-0.91648 -4.15127,-1.012827 -12.94525,-1.013617 l -8.11098,-7.29e-4 v 24.482632 24.482632 l 8.74536,-0.07707 c 8.0663,-0.07109 8.865,-0.106155 10.286,-0.45164 z"
       id="path3"
       transform="matrix(0.26458333,0,0,0.26458333,32.214829,30.286635)" />
  </g>
</svg>
